{
  "accessors": [
    {
      "bufferView": 2,
      "componentType": 5126,
      "count": 5664,
      "max": [
        0.6347191333770752,
        0.9143708348274231,
        0.3728702962398529
      ],
      "min": [
        -0.6349935531616211,
        -2.6680896553443745e-05,
        -0.1989515721797943
      ],
      "type": "VEC3"
    },
    {
      "bufferView": 2,
      "byteOffset": 67968,
      "componentType": 5126,
      "count": 5664,
      "max": [
        1.0,
        1.0,
        1.0
      ],
      "min": [
        -1.0,
        -1.0,
        -1.0
      ],
      "type": "VEC3"
    },
    {
      "bufferView": 3,
      "componentType": 5126,
      "count": 5664,
      "max": [
        1.0,
        1.0,
        1.0,
        1.0
      ],
      "min": [
        -1.0,
        -1.0,
        -1.0,
        -1.0
      ],
      "type": "VEC4"
    },
    {
      "bufferView": 1,
      "componentType": 5126,
      "count": 5664,
      "max": [
        0.9724546074867249,
        0.9787917137145996
      ],
      "min": [
        0.013979433104395866,
        0.013979433104395866
      ],
      "type": "VEC2"
    },
    {
      "bufferView": 1,
      "byteOffset": 45312,
      "componentType": 5126,
      "count": 5664,
      "max": [
        0.9724546074867249,
        0.9787917137145996
      ],
      "min": [
        0.013979433104395866,
        0.013979433104395866
      ],
      "type": "VEC2"
    },
    {
      "bufferView": 1,
      "byteOffset": 90624,
      "componentType": 5126,
      "count": 5664,
      "max": [
        0.9724546074867249,
        0.9787917137145996
      ],
      "min": [
        0.013979433104395866,
        0.013979433104395866
      ],
      "type": "VEC2"
    },
    {
      "bufferView": 1,
      "byteOffset": 135936,
      "componentType": 5126,
      "count": 5664,
      "max": [
        0.9724546074867249,
        0.9787917137145996
      ],
      "min": [
        0.013979433104395866,
        0.013979433104395866
      ],
      "type": "VEC2"
    },
    {
      "bufferView": 0,
      "componentType": 5125,
      "count": 17601,
      "type": "SCALAR"
    }
  ],
  "asset": {
    "extras": {
      "author": "Brandon Westlake (https://sketchfab.com/dr.badass2142)",
      "license": "SKETCHFAB Standard (https://sketchfab.com/licenses)",
      "source": "https://sketchfab.com/3d-models/old-rustic-stand-free-edf0791ac8be4e10aeea67f2a6eb3248",
      "title": "Old Rustic Stand (FREE)"
    },
    "generator": "Sketchfab-15.50.0",
    "version": "2.0"
  },
  "bufferViews": [
    {
      "buffer": 0,
      "byteLength": 70404,
      "name": "floatBufferViews",
      "target": 34963
    },
    {
      "buffer": 0,
      "byteLength": 181248,
      "byteOffset": 70404,
      "byteStride": 8,
      "name": "floatBufferViews",
      "target": 34962
    },
    {
      "buffer": 0,
      "byteLength": 135936,
      "byteOffset": 251652,
      "byteStride": 12,
      "name": "floatBufferViews",
      "target": 34962
    },
    {
      "buffer": 0,
      "byteLength": 90624,
      "byteOffset": 387588,
      "byteStride": 16,
      "name": "floatBufferViews",
      "target": 34962
    }
  ],
  "buffers": [
    {
      "byteLength": 478212,
      "uri": "scene.bin"
    }
  ],
  "extensionsUsed": [
    "KHR_materials_specular"
  ],
  "images": [
    {
      "uri": "textures/old_rustic_stand_Mat_baseColor.jpeg"
    },
    {
      "uri": "textures/old_rustic_stand_Mat_metallicRoughness.png"
    },
    {
      "uri": "textures/old_rustic_stand_Mat_normal.jpeg"
    },
    {
      "uri": "textures/old_rustic_stand_Mat_specularf0.png"
    }
  ],
  "materials": [
    {
      "doubleSided": true,
      "extensions": {
        "KHR_materials_specular": {
          "specularColorFactor": [
            1.0,
            1.0,
            1.0
          ],
          "specularFactor": 1.0,
          "specularTexture": {
            "index": 3
          }
        }
      },
      "name": "old_rustic_stand_Mat",
      "normalTexture": {
        "index": 2
      },
      "occlusionTexture": {
        "index": 1
      },
      "pbrMetallicRoughness": {
        "baseColorTexture": {
          "index": 0
        },
        "metallicRoughnessTexture": {
          "index": 1
        }
      }
    }
  ],
  "meshes": [
    {
      "name": "Object_0",
      "primitives": [
        {
          "attributes": {
            "NORMAL": 1,
            "POSITION": 0,
            "TANGENT": 2,
            "TEXCOORD_0": 3,
            "TEXCOORD_1": 4,
            "TEXCOORD_2": 5,
            "TEXCOORD_3": 6
          },
          "indices": 7,
          "material": 0,
          "mode": 4
        }
      ]
    }
  ],
  "nodes": [
    {
      "children": [
        1
      ],
      "matrix": [
        1.0,
        0.0,
        0.0,
        0.0,
        0.0,
        2.220446049250313e-16,
        -1.0,
        0.0,
        0.0,
        1.0,
        2.220446049250313e-16,
        0.0,
        0.0,
        0.0,
        0.0,
        1.0
      ],
      "name": "Sketchfab_model"
    },
    {
      "children": [
        2
      ],
      "name": "root"
    },
    {
      "children": [
        3
      ],
      "matrix": [
        1.0,
        0.0,
        0.0,
        0.0,
        0.0,
        2.220446049250313e-16,
        1.0,
        0.0,
        0.0,
        -1.0,
        2.220446049250313e-16,
        0.0,
        0.0,
        0.0,
        0.0,
        1.0
      ],
      "name": "GLTF_SceneRootNode"
    },
    {
      "children": [
        4
      ],
      "name": "old_rustic_stand_0"
    },
    {
      "mesh": 0,
      "name": "Object_4"
    }
  ],
  "samplers": [
    {
      "magFilter": 9729,
      "minFilter": 9987,
      "wrapS": 10497,
      "wrapT": 10497
    }
  ],
  "scene": 0,
  "scenes": [
    {
      "name": "Sketchfab_Scene",
      "nodes": [
        0
      ]
    }
  ],
  "textures": [
    {
      "sampler": 0,
      "source": 0
    },
    {
      "sampler": 0,
      "source": 1
    },
    {
      "sampler": 0,
      "source": 2
    },
    {
      "sampler": 0,
      "source": 3
    }
  ]
}
